<?xml version="1.0" encoding="UTF-8"?>
<svg id="Layer_1" data-name="Layer 1" xmlns="http://www.w3.org/2000/svg" viewBox="0 0 511.96 512.05">
  <defs>
    <style>
      .cls-1 {
        fill: #231f20;
        isolation: isolate;
        opacity: .9;
        stroke-width: 0px;
      }
    </style>
  </defs>
  <path class="cls-1" d="m505,442.7l-99.7-99.7c-4.5-4.5-10.6-7-17-7h-16.3c27.6-35.3,44-79.7,44-128C416,93.1,322.9,0,208,0S0,93.1,0,208s93.1,208,208,208c48.3,0,92.7-16.4,128-44v16.3c0,6.4,2.5,12.5,7,17l99.7,99.7c9.4,9.4,24.6,9.4,33.9,0l28.3-28.3c9.4-9.4,9.4-24.6.1-34Zm-297-106.7c-70.7,0-128-57.2-128-128s57.2-128,128-128,128,57.2,128,128-57.2,128-128,128Z"/>
</svg>